<svg width="1440" height="914" viewBox="0 0 1440 914" fill="none" xmlns="http://www.w3.org/2000/svg">
<path d="M-7.78334 0L-7.78337 911.972M118.879 0L118.879 911.972M245.542 0L245.542 911.972M1479.98 0.527832L-39.9768 0.527762M372.205 0L372.205 911.972M1479.98 101.858L-39.9768 101.858M498.868 0L498.868 911.972M1479.98 203.189L-39.9768 203.189M625.531 0V911.972M1479.98 304.519L-39.9768 304.519M752.194 0V911.972M1479.98 405.849L-39.9768 405.849M878.856 0V911.972M1479.98 507.18L-39.9768 507.18M1005.52 0V911.972M1479.98 608.51L-39.9768 608.51M1322.18 0V911.972M1479.98 861.836L-39.9768 861.836M1132.18 0V911.972M1479.98 709.841L-39.9768 709.84M1448.84 0V911.972M55.5481 0L55.548 911.972M182.211 0L182.211 911.972M308.874 0L308.874 911.972M1479.98 51.193L-39.9768 51.1929M435.536 0L435.536 911.972M1479.98 152.523L-39.9768 152.523M562.199 0V911.972M1479.98 253.854L-39.9768 253.854M688.862 0V911.972M1479.98 355.184L-39.9768 355.184M815.525 0V911.972M1479.98 456.515L-39.9768 456.514M942.188 0V911.972M1479.98 557.845L-39.9768 557.845M1258.84 0V911.972M1479.98 811.171L-39.9768 811.171M1068.85 0V911.972M1479.98 659.175L-39.9768 659.175M1385.51 0V911.972M1479.98 912.501L-39.9768 912.501M1195.51 0V911.972M1479.98 760.506L-39.9768 760.506" stroke="url(#paint0_radial_9_11040)" stroke-width="1.05552"/>
<defs>
<radialGradient id="paint0_radial_9_11040" cx="0" cy="0" r="1" gradientUnits="userSpaceOnUse" gradientTransform="translate(1163.85 515.623) rotate(58.8086) scale(842.749 960.831)">
<stop stop-color="white"/>
<stop offset="1" stop-color="white" stop-opacity="0"/>
</radialGradient>
</defs>
</svg>
